<svg xmlns="http://www.w3.org/2000/svg" width="103" height="101" viewBox="0 0 103 101">
    <g fill="none" fill-rule="evenodd">
        <g fill="#AFAFAF">
            <g>
                <path fill-rule="nonzero" d="M101.108 90.729H90.655l-2.538-24.083 2.808 4.208.696 3.48c.336 1.678 1.392 3.106 2.898 3.922.853.462 1.79.695 2.733.695.722 0 1.447-.137 2.137-.412 1.488-.594 2.667-1.793 3.237-3.289.57-1.496.485-3.174-.23-4.606l-1.468-2.933c-.005-.012-.015-.019-.022-.029-.004-.009-.004-.017-.007-.026l-10.282-18.83c-.19-.35-.499-.622-.867-.77L85.106 46.2c3.485-2.828 5.72-7.139 5.72-11.963 0-2.58-.68-5.12-1.931-7.393l-.885-8.837c2.76-1.167 4.53-3.46 4.53-6.024 0-3.686-3.663-6.7-8.231-6.842C82.487 1.982 79.109 0 75.403 0c-3.707 0-7.085 1.982-8.906 5.14-4.57.143-8.231 3.157-8.231 6.843 0 2.564 1.77 4.857 4.529 6.024l-.884 8.837c-1.251 2.273-1.932 4.814-1.932 7.393 0 4.824 2.235 9.135 5.722 11.961l-4.644 1.856c-.274.11-.516.29-.7.52l-5.784 7.223-6.989-5.585-1.866-3.107c-.317-.529-.721-.977-1.158-1.386v-4.634c0-2.23-1.438-4.112-3.428-4.82v-7.163h1.714c2.834 0 5.14-2.304 5.14-5.136V13.695c0-2.832-2.306-5.136-5.14-5.136H35.99c-2.834 0-5.141 2.304-5.141 5.136v10.271c0 2.832 2.307 5.136 5.141 5.136h1.714v7.162c-1.99.709-3.428 2.592-3.428 4.82V47.94c-.428 1.019-.62 2.13-.481 3.266.245 1.98 1.367 3.706 3.08 4.734l3.242 1.943 11.392 9.957c1.914 1.671 4.72 1.707 6.677.08l4.79-3.99-2.826 26.8H30.19l2.011-4.016c3.208-1.238 5.5-4.331 5.5-7.967v-3.739c1.989-.709 3.427-2.592 3.427-4.82 0-2.832-2.307-5.136-5.141-5.136H5.14C2.307 65.05 0 67.355 0 70.186c0 2.23 1.438 4.112 3.427 4.821v3.739c0 3.636 2.292 6.73 5.5 7.967l2.01 4.016H1.714C.768 90.729 0 91.496 0 92.44v6.847C0 100.233.768 101 1.714 101h99.394c.946 0 1.714-.767 1.714-1.712v-6.847c0-.945-.768-1.712-1.714-1.712zM37.701 25.678h-1.713c-.945 0-1.714-.769-1.714-1.712V13.695c0-.943.77-1.712 1.714-1.712H37.7v13.695zM99.33 72.172c.293.586.328 1.246.095 1.86-.234.61-.698 1.083-1.306 1.326-.64.255-1.358.214-1.964-.115-.607-.328-1.035-.905-1.17-1.581l-.443-2.21 3.937-.983.851 1.703zM87.904 51.005L96.83 67.35l-3.534.881-6.025-9.028-2.488-9.446 3.122 1.248zm-3.761 10.622L87.21 90.73H63.597l3.066-29.102h17.48zm-16.798-3.424l2.526-9.595c.068.026.139.045.207.069.345.127.69.248 1.046.35.135.04.272.071.407.105.328.086.655.168.99.231.167.033.337.052.505.077.31.048.618.1.934.13.22.021.444.023.665.035.26.013.515.04.778.04.262 0 .517-.027.778-.04.222-.012.444-.014.665-.035.315-.029.623-.08.934-.13.168-.025.337-.044.505-.077.334-.063.662-.147.989-.23.135-.037.272-.066.408-.105.354-.103.702-.223 1.045-.351.069-.026.139-.043.207-.069l2.528 9.595H67.345zm-5.652-46.22c0-1.856 2.355-3.424 5.141-3.424.1 0 .194.012.29.023l.276.025c.721.043 1.413-.36 1.705-1.032 1.083-2.522 3.556-4.151 6.298-4.151s5.214 1.63 6.3 4.151c.289.673.991 1.089 1.704 1.032l.276-.025c.094-.01.189-.023.288-.023 2.787 0 5.141 1.568 5.141 3.424 0 1.368-1.384 2.676-3.367 3.182-.821.21-1.366.986-1.282 1.829l1.042 10.396H65.3l1.04-10.395c.085-.842-.46-1.619-1.281-1.828-1.981-.508-3.366-1.816-3.366-3.184zm1.714 22.254c0-1.16.173-2.314.505-3.423h22.98c.333 1.109.507 2.263.507 3.423 0 4.752-2.792 8.856-6.816 10.792-.389.186-.786.353-1.19.495l-.056.02c-2.553.892-5.319.892-7.872 0l-.057-.02c-.403-.142-.799-.309-1.19-.495-4.02-1.936-6.811-6.04-6.811-10.792zM41.129 11.983h1.713c.945 0 1.714.769 1.714 1.712v10.271c0 .943-.77 1.712-1.714 1.712H41.13V11.983zm-1.714 27.39c.944 0 1.714.769 1.714 1.712v2.975c-.01-.002-.023-.002-.033-.003-.041-.006-.077-.024-.118-.03-.094-.012-.187.006-.28-.003-.298-.024-.592-.027-.89-.01-.15.008-.297.008-.443.027-.353.045-.697.127-1.038.23-.146.044-.286.09-.429.143-.065.024-.132.04-.195.065v-3.394h-.002c0-.943.77-1.712 1.714-1.712zm-.776 13.63c-.804-.481-1.33-1.29-1.443-2.217-.076-.604.05-1.195.317-1.72.007-.014.019-.023.026-.036.073-.14.147-.26.222-.372.093-.128.184-.258.297-.371.24-.242.519-.425.812-.567.024-.012.048-.027.072-.04.293-.131.605-.213.924-.246l.07-.007c.31-.025.624.002.932.072l.096.022c.32.086.633.218.919.413.008.005.019.008.027.014.345.24.645.546.869.919l1.335 2.224-3.25 3.245-2.225-1.333zm17.35 12.284c-.65.541-1.588.532-2.225-.026l-10.13-8.853 2.76-2.758 7.372 5.89c.736.59 1.816.473 2.407-.267l6.572-8.206 3.275-1.308-2.421 9.194-7.61 6.334zM5.142 71.898c-.944 0-1.714-.768-1.714-1.712 0-.943.77-1.711 1.714-1.711h30.847c.944 0 1.713.768 1.713 1.711 0 .944-.77 1.712-1.713 1.712H5.14zm1.714 6.848v-3.424h27.419v3.424c0 2.831-2.307 5.135-5.141 5.135H11.996c-2.835 0-5.141-2.304-5.141-5.135zm21.219 8.56l-1.714 3.423h-4.082v-3.424h5.796zm-9.223 0v3.423h-4.082l-1.714-3.424h5.796zm80.543 10.27H3.427v-3.423H99.394v3.423z" transform="translate(-184 -241) translate(184 241)"/>
                <path fill-rule="nonzero" d="M80.25 68h-10.5c-.966 0-1.75.784-1.75 1.75V75c0 3.86 3.14 7 7 7s7-3.14 7-7v-5.25c0-.966-.784-1.75-1.75-1.75zm-1.75 7c0 1.93-1.57 3.5-3.5 3.5s-3.5-1.57-3.5-3.5v-3.5h7V75z" transform="translate(-184 -241) translate(184 241)"/>
                <path d="M19 51H22V60H19zM28 55H31V62H28zM10 55H13V62H10zM19 45H22V48H19zM10 48H13V51H10zM28 48H31V51H28z" transform="translate(-184 -241) translate(184 241)"/>
            </g>
        </g>
    </g>
</svg>
