<svg xmlns="http://www.w3.org/2000/svg" xmlns:xlink="http://www.w3.org/1999/xlink" width="125" height="30" viewBox="0 0 125 30">
    <defs>
        <path id="t0fbit7yta" d="M0 0L21.681 0 21.681 28.035 0 28.035z"/>
    </defs>
    <g fill="none" fill-rule="evenodd">
        <g>
            <g>
                <path fill="#FFF" d="M38.695 29.38c.085.015.171.027.258.037.256.029.519.042.789.035.106-.002.212-.008.32-.015.084-.007.169-.015.254-.025.323-.038.595-.264.67-.568.09-.358.04-.715-.051-1.078-.017-.068-.036-.136-.055-.206-.062-.22-.134-.443-.192-.67-.018-.07-.034-.14-.05-.21-.04-.196-.068-.394-.068-.596l.001-.041c.004-.086.019-.182.04-.285.061-.276.179-.604.299-.94l.044-.162.05-.104c.168-.488.307-.97.242-1.308v-.003c-.04-.2-.15-.35-.366-.424-.047-.016-.098-.03-.155-.038-.034 0-.069 0-.103.002-.282.002-.57.008-.858.021l-.326.02c-.393.028-.786.071-1.166.141-.136.025-.27.053-.402.083-.576.138-1.114.342-1.568.65-.098.067-.188.13-.273.192-.76.552-1.036.924-1.548 1.217-.005.03-.002.004.001-.008.005-.049-.009-.1-.035-.143-.04-.067-.108-.12-.181-.13-.184.038-.327.053-.512.05h-.076c-.087.002-.174 0-.261-.006-.11-.008-.218-.022-.327-.044-.122.017-.23.149-.216.273.003.012.006.038 0 .008-.148-.085-.277-.177-.404-.279-.05-.04-.101-.082-.151-.125-.127-.107-.257-.224-.408-.353-.047-.04-.099-.084-.151-.126-.126-.103-.267-.214-.43-.333-.053-.039-.108-.077-.164-.116l-.11-.077c-.15-.1-.307-.19-.472-.27-.064-.03-.13-.06-.195-.088-.187-.08-.381-.149-.582-.207-.075-.023-.152-.043-.228-.062-.218-.055-.44-.1-.668-.136-.085-.014-.17-.027-.256-.038-.296-.04-.597-.065-.898-.084l-.284-.014c-.273-.011-.544-.016-.81-.018h-.032c-.324.048-.476.218-.523.462-.035.183-.01.41.047.653.015.068.034.138.054.208.06.212.136.433.215.652l.068.194c.067.187.13.37.182.54.02.072.04.14.056.206.035.144.056.276.056.39 0 .09-.006.18-.016.267-.01.099-.025.195-.044.29-.075.368-.2.723-.292 1.073-.037.145-.069.287-.09.43-.033.225-.031.455.02.677.009.04.02.08.032.12.044.133.107.268.195.402l.128.021c.085.016.17.029.254.04.323.042.636.057.94.047.11-.002.218-.01.325-.019.366-.03.718-.095 1.056-.186.167-.046.33-.098.489-.157.445-.16.866-.366 1.262-.6.468-.279.8-.572 1.11-.841.064-.042.176-.077.319-.108.108-.022.234-.042.37-.057.259-.029.554-.044.834-.043.07 0 .142 0 .213.002.097.004.193.006.287.012.272.017.528.048.723.09.09.02.165.043.223.067.03.011.056.024.076.037.112.097.228.197.35.3l.003-.002.155.122-.003.003c.16.126.34.254.542.378l.064.04.113.064c.166.096.336.184.51.267.064.033.13.062.195.09.185.082.373.157.565.222.073.024.145.048.22.07.252.075.512.136.781.179" transform="translate(-173 -74) translate(173 74)"/>
                <path fill="#D8D8D8" d="M25.985 21.267h.033c.326.003.59.009.832.02l.291.015c.34.022.645.052.934.093.09.012.182.027.271.043.21.035.41.08.601.128-.415-1.234-.623-2.732-.623-4.496 0-2.142.28-3.91.843-5.304.806-1.992 2.101-2.988 3.885-2.988 1.295 0 2.309.535 3.042 1.606 1.148 1.668 1.723 3.947 1.723 6.835 0 1.71-.154 3.146-.46 4.31.086-.02.172-.041.26-.058.37-.072.769-.124 1.217-.156.111-.009.222-.016.334-.023.266-.013.553-.02.881-.024.05 0 .112-.005.17.004.033.005.065.012.096.02.63-1.244.947-2.639.947-4.184 0-2.516-.775-4.627-2.327-6.333-1.552-1.706-3.476-2.559-5.773-2.559-2.419 0-4.404.816-5.956 2.447-1.552 1.631-2.327 3.73-2.327 6.295 0 1.6.343 3.038 1.027 4.318l.018-.004c.02-.003.04-.005.061-.005M60.68 8.5c0 .19-.234.276-.7.257h-1.121c-.299 0-.476.052-.532.156-.056.104-.084.421-.084.95v16.361c0 1.003-.01 1.59-.028 1.76-.019.171-.074.256-.167.256-.112 0-.242-.105-.39-.314l-3.58-5.323c-2.075-3.091-4.597-6.95-7.57-11.578v15.878c.02.247.16.404.425.47.265.066.896.109 1.896.128.245 0 .368.076.368.228 0 .19-.243.284-.728.284-.168 0-.7-.029-1.596-.085-.3-.02-.588-.029-.868-.029.018 0-.145.02-.49.057-.346.038-.874.057-1.583.057h-.28c-.43 0-.644-.085-.644-.256 0-.172.186-.257.56-.257 1.101-.019 1.741-.09 1.919-.214.177-.123.266-.526.266-1.21V12.032c0-1.575-.318-2.563-.952-2.962-.3-.19-.831-.285-1.597-.285-.486 0-.728-.1-.728-.3 0-.179.14-.269.42-.269.374 0 .85.019 1.428.057.579.038.887.057.924.057.056 0 .318-.01.784-.029.617 0 1.214-.028 1.793-.085l9.662 14.648V10.207c0-.587-.01-.943-.028-1.066-.019-.124-.094-.218-.224-.285-.13-.066-.579-.1-1.344-.1-.673 0-1.009-.085-1.009-.255 0-.19.224-.285.673-.285h4.509c.41 0 .616.095.616.285M77.063 13.21c0 .242-.11.363-.329.363-.219 0-.374-.242-.465-.726l-.11-1.004c-.128-.67-.337-1.237-.63-1.702-.383-.614-1.013-1.005-1.889-1.172-.566-.111-1.022-.158-1.369-.14-.858.026-1.379.044-1.56.056v16.85c0 .67.172 1.09.52 1.257.182.093.693.15 1.533.167.219.018.329.097.329.237 0 .159-.147.238-.439.238-.146 0-.273-.01-.383-.028-1.095-.037-1.872-.056-2.327-.056-.603 0-1.169.014-1.698.042-.53.028-1.205.042-2.026.042-.42 0-.63-.075-.63-.224 0-.167.392-.26 1.177-.279.566 0 .931-.121 1.095-.364.092-.148.137-.53.137-1.145V8.885c-1.807.02-2.93.112-3.368.28-1.15.427-1.826 1.572-2.026 3.431-.055.558-.183.837-.383.837-.22 0-.329-.195-.329-.586 0-.204.01-.409.027-.614l.055-.641c.055-.855.137-1.981.247-3.376h1.232l5.586.083c.657.02 1.68.02 3.067 0l4.545-.083c.036 1.042.155 2.585.356 4.631 0 .056.009.126.028.21.018.083.027.135.027.153M92.231 25.787c0 .495-.027 1.312-.083 2.453h-.303c-.11 0-.377-.019-.8-.057-.423-.038-.901-.057-1.434-.057L78.14 28.04c-.313 0-.47-.086-.47-.257 0-.133.25-.219.747-.257.7-.038 1.119-.119 1.257-.242.138-.124.207-.48.207-1.07v-16.03c0-.704-.07-1.113-.207-1.228-.138-.114-.631-.17-1.478-.17-.35 0-.525-.105-.525-.315 0-.17.11-.256.331-.256h.249c.608.057 1.814.085 3.62.085.165 0 .487-.014.966-.042.48-.029.875-.043 1.189-.043h.304c.331 0 .497.095.497.285 0 .114-.051.186-.152.214-.102.029-.419.053-.953.071-.535.02-.852.11-.953.272-.102.161-.153.66-.153 1.497v16.83c.498.019 1.189.028 2.073.028 2.155 0 3.675-.114 4.559-.342.884-.229 1.482-.656 1.796-1.284.313-.628.497-1.473.553-2.539.017-.247.123-.37.317-.37.23 0 .336.142.318.427v2.482zM108.01 23.475c0 .076-.018.54-.055 1.39-.036.85-.054 1.664-.054 2.44v.935c-1.775-.113-5.29-.17-10.542-.17H93.962c-.343 0-.515-.076-.515-.228 0-.102.054-.161.162-.178.055 0 .399-.025 1.033-.076.47-.038.756-.142.856-.313.1-.17.15-.617.15-1.337V9.95c0-.55-.078-.878-.232-.982-.154-.104-.647-.157-1.48-.157-.29 0-.435-.08-.435-.24 0-.161.199-.242.598-.242h11.52c.543 0 1.041-.037 1.494-.113.037.813.118 1.938.245 3.375l.108 1.22c.018.094.028.217.028.368 0 .19-.082.284-.245.284-.2 0-.344-.238-.435-.714-.344-1.712-.906-2.797-1.684-3.254-.58-.342-2.101-.513-4.565-.513h-2.228v8.338h.652c2.029 0 3.265-.16 3.71-.482.443-.321.746-1.257.91-2.808.035-.397.135-.595.298-.595.2 0 .299.17.299.51 0 .34-.018.842-.055 1.504-.036.661-.054 1.162-.054 1.503 0 2.023.03 3.413.087 4.17.015.188.022.35.022.481 0 .246-.1.369-.297.369-.127 0-.213-.08-.257-.241-.045-.16-.122-.685-.23-1.574-.144-1.116-.586-1.806-1.326-2.07-.324-.114-1.172-.171-2.542-.171h-1.217v9.502c3.985 0 6.322-.084 7.01-.253 1.196-.28 1.875-1.475 2.038-3.585.036-.467.154-.7.353-.7.181 0 .272.198.272.595M119.071 12.86c0-2.7-1.184-4.05-3.552-4.05-.63 0-1.06.086-1.289.255-.229.17-.343.473-.343.907v7.194c1.833.019 3.155-.312 3.967-.991.811-.68 1.217-1.785 1.217-3.314m3.924 15.38c-1.49 0-2.654-.614-3.495-1.842-.362-.528-.596-1.038-.701-1.53-.105-.49-.263-1.736-.472-3.738-.115-1.208-.507-2.063-1.175-2.563-.669-.5-1.757-.77-3.265-.807v8.921c0 .379.305.614.916.708.172.02.611.039 1.318.057.248 0 .372.076.372.227 0 .17-.162.255-.486.255h-6.732c-.42 0-.63-.085-.63-.255 0-.132.276-.208.83-.227.898-.018 1.385-.132 1.461-.34.077-.094.115-.462.115-1.104V10.369c0-.756-.082-1.209-.243-1.36-.163-.151-.655-.236-1.476-.255-.477 0-.715-.085-.715-.255 0-.188.152-.283.458-.283.057 0 .143.01.257.028l3.81.085c.382 0 .917-.012 1.604-.038.764-.05 1.298-.075 1.604-.075 1.776 0 3.184.392 4.225 1.175 1.04.784 1.56 1.846 1.56 3.187 0 1.321-.534 2.412-1.603 3.27-1.07.86-2.52 1.365-4.354 1.516-.171.02-.267.048-.286.086 0 .075.095.113.286.113 2.005.341 3.384 1.037 4.139 2.087.754 1.051 1.255 2.95 1.504 5.695.152 1.552.688 2.329 1.604 2.329.286 0 .43-.057.43-.17 0-.019-.01-.038-.029-.057-.096-.208-.143-.377-.143-.51 0-.396.21-.595.63-.595.458 0 .687.237.687.709 0 .793-.668 1.19-2.005 1.19z" transform="translate(-173 -74) translate(173 74)"/>
                <g transform="translate(-173 -74) translate(173 74)">
                    <mask id="28nu78ny2b" fill="#fff">
                        <use xlink:href="#t0fbit7yta"/>
                    </mask>
                    <path fill="#D8D8D8" d="M21.681 18.808c0-.026-.026.326-.077 1.055-.102 1.46-.153 2.92-.153 4.38 0 .182.025.515.076.997s.077 1.062.077 1.74v.352c0 .338-.102.508-.307.508-.205 0-.384-.196-.537-.587-.359-.912-.716-1.472-1.075-1.681-1.842 1.642-4.055 2.463-6.638 2.463-3.76 0-6.875-1.335-9.344-4.007C1.234 21.356 0 17.987 0 13.92 0 9.828 1.132 6.485 3.396 3.89 5.66 1.297 8.582 0 12.164 0c1.305 0 2.347.111 3.128.332.78.222 1.746.672 2.897 1.35.562.338.984.508 1.266.508.23 0 .448-.209.653-.626.332-.73.6-1.095.805-1.095.205 0 .308.105.308.313 0 .105-.026.274-.077.508-.282 1.251-.422 3.598-.422 7.038 0 .496-.039.783-.116.86-.076.079-.179.118-.307.118-.255 0-.422-.248-.498-.743-.333-2.085-.806-3.636-1.42-4.653-1.254-2.085-3.223-3.128-5.91-3.128-2.072 0-3.71.704-4.912 2.111-2.174 2.53-3.261 6.231-3.261 11.105 0 4.354.895 7.73 2.686 10.127 1.56 2.086 3.632 3.128 6.216 3.128 1.33 0 2.546-.338 3.646-1.017 1.1-.677 1.95-1.608 2.552-2.795.6-1.186 1.068-2.613 1.4-4.282.128-.625.294-.938.499-.938.256 0 .384.196.384.587" mask="url(#28nu78ny2b)"/>
                </g>
            </g>
        </g>
    </g>
</svg>
