<svg xmlns="http://www.w3.org/2000/svg" xmlns:xlink="http://www.w3.org/1999/xlink" width="130" height="31" viewBox="0 0 130 31">
    <defs>
        <path id="a" d="M0 .294h22.828v29.49H0z"/>
    </defs>
    <g fill="none" fill-rule="evenodd">
        <path fill="#1C1C1C" d="M40.292 30.923a5.723 5.723 0 0 0 1.104.075 6.543 6.543 0 0 0 .606-.042.82.82 0 0 0 .707-.595c.095-.376.043-.75-.054-1.13a6.523 6.523 0 0 0-.058-.217c-.065-.23-.141-.465-.203-.703a5.633 5.633 0 0 1-.052-.22 3.02 3.02 0 0 1-.072-.625l.001-.043c.005-.09.02-.19.042-.299.065-.29.189-.634.315-.986l.047-.17.052-.108c.178-.513.324-1.017.256-1.373v-.002a.548.548 0 0 0-.386-.445.947.947 0 0 0-.163-.04l-.11.001c-.297.002-.6.01-.904.023-.115.006-.229.013-.344.021-.414.029-.829.075-1.23.148a9.364 9.364 0 0 0-.424.087c-.607.145-1.175.359-1.654.681-.103.07-.198.136-.287.202-.801.579-1.093.969-1.633 1.276a.248.248 0 0 0-.037-.159.28.28 0 0 0-.19-.136c-.194.04-.345.056-.54.053h-.08a2.8 2.8 0 0 1-.62-.053c-.13.018-.242.156-.228.287.003.012.006.04 0 .008a3.284 3.284 0 0 1-.427-.292 7.558 7.558 0 0 1-.159-.132c-.133-.112-.27-.235-.43-.37a9.568 9.568 0 0 0-.903-.684 3.99 3.99 0 0 0-.702-.375 5.57 5.57 0 0 0-.855-.282 8.026 8.026 0 0 0-.974-.183c-.313-.04-.63-.068-.947-.088l-.3-.014a25.336 25.336 0 0 0-.854-.019h-.034c-.341.05-.502.229-.55.485-.038.192-.012.428.048.685.017.07.036.144.057.217.063.222.144.454.226.684.025.067.05.135.073.203.07.196.137.388.191.567.022.075.043.146.06.215.036.152.059.29.059.41a3.115 3.115 0 0 1-.064.584c-.079.386-.21.758-.307 1.125-.04.152-.073.301-.095.451a1.892 1.892 0 0 0 .055.835c.045.14.112.282.205.423l.135.022a6.216 6.216 0 0 0 1.602.071 6.327 6.327 0 0 0 1.63-.36c.47-.167.913-.384 1.33-.628.495-.293.845-.601 1.172-.883.067-.044.185-.08.336-.113.114-.023.247-.044.39-.06a7.873 7.873 0 0 1 1.105-.043c.101.004.203.007.303.013.286.018.556.05.762.095.094.02.173.044.235.069a.473.473 0 0 1 .08.039c.119.101.24.207.37.314l.002-.002.164.129-.004.003c.17.132.36.266.573.397.023.013.044.027.067.042l.12.066a7.698 7.698 0 0 0 .743.375 7.353 7.353 0 0 0 .827.305c.266.08.541.143.824.188"/>
        <path fill="#4C4B4B" d="M27.148 22.687h.034a23.09 23.09 0 0 1 1.166.037c.353.022.67.054.969.097a7.968 7.968 0 0 1 .905.18c-.432-1.295-.647-2.866-.647-4.715 0-2.247.291-4.101.874-5.564.838-2.089 2.181-3.133 4.032-3.133 1.344 0 2.396.562 3.157 1.685 1.191 1.75 1.787 4.138 1.787 7.168 0 1.793-.16 3.299-.478 4.52.09-.021.18-.043.27-.061.385-.076.798-.13 1.263-.164.116-.01.231-.017.347-.023.276-.015.574-.023.914-.026.053 0 .117-.006.177.004.033.006.067.013.1.021.654-1.305.982-2.767.982-4.388 0-2.638-.805-4.852-2.415-6.641C38.975 9.894 36.978 9 34.595 9c-2.51 0-4.57.856-6.18 2.566C26.805 13.277 26 15.477 26 18.168c0 1.678.357 3.186 1.066 4.528l.02-.004a.394.394 0 0 1 .062-.005M63 9.298c0 .2-.244.289-.73.269H61.1c-.312 0-.497.055-.555.164-.059.109-.088.442-.088.997v17.157c0 1.053-.01 1.669-.03 1.847-.019.179-.077.268-.174.268-.117 0-.252-.11-.408-.33l-3.735-5.582c-2.166-3.242-4.799-7.29-7.9-12.142v16.652c.019.258.166.423.442.492.276.07.936.115 1.98.134.255 0 .383.08.383.24 0 .198-.253.297-.76.297-.175 0-.73-.03-1.665-.089a14.29 14.29 0 0 0-.907-.03c.02 0-.15.02-.511.06-.361.04-.912.06-1.652.06h-.292c-.449 0-.672-.09-.672-.27 0-.179.194-.269.584-.269 1.15-.02 1.817-.094 2.002-.224.185-.128.278-.552.278-1.269V13.002c0-1.652-.331-2.688-.993-3.107-.313-.199-.868-.298-1.667-.298-.507 0-.76-.105-.76-.315 0-.188.146-.282.439-.282.39 0 .886.02 1.49.06.604.04.926.06.965.06.058 0 .331-.01.818-.03.644 0 1.267-.03 1.871-.09l10.085 15.361V11.088c0-.616-.01-.989-.03-1.119-.02-.129-.097-.228-.233-.298-.137-.07-.605-.104-1.403-.104-.702 0-1.053-.09-1.053-.269 0-.198.234-.298.702-.298H62.357c.428 0 .643.1.643.298M80 14.144c0 .249-.116.373-.347.373-.23 0-.395-.249-.49-.747-.04-.345-.078-.69-.116-1.034-.135-.69-.357-1.274-.665-1.753-.404-.632-1.068-1.035-1.992-1.207-.597-.115-1.079-.163-1.444-.144-.905.026-1.454.045-1.647.057v17.355c0 .69.183 1.122.549 1.295.193.096.732.154 1.618.173.23.018.346.1.346.244 0 .163-.154.244-.462.244-.154 0-.289-.01-.404-.028a86.033 86.033 0 0 0-2.455-.058c-.636 0-1.232.014-1.79.043-.56.029-1.271.043-2.138.043-.443 0-.665-.077-.665-.23 0-.173.415-.269 1.243-.288.596 0 .982-.124 1.155-.374.096-.153.144-.547.144-1.18V9.689c-1.906.02-3.09.115-3.552.288-1.213.44-1.926 1.62-2.138 3.534-.057.575-.192.863-.403.863-.232 0-.347-.201-.347-.604 0-.21.01-.421.029-.632l.057-.661c.058-.88.145-2.04.26-3.477h1.3l5.892.086c.693.02 1.77.02 3.234 0L79.567 9c.038 1.073.163 2.663.375 4.77 0 .058.01.13.029.216.02.086.029.139.029.158M95.998 27.427c0 .519-.028 1.376-.085 2.573H95.6c-.114 0-.39-.02-.825-.06-.435-.04-.928-.06-1.477-.06l-11.816-.09c-.322 0-.483-.09-.483-.269 0-.14.256-.229.768-.27.72-.039 1.153-.124 1.295-.253.142-.13.214-.504.214-1.122V11.064c0-.738-.072-1.166-.214-1.287-.142-.12-.65-.179-1.522-.179-.361 0-.541-.11-.541-.33 0-.179.114-.268.341-.268h.256c.627.06 1.87.09 3.729.09.17 0 .502-.015.995-.045.494-.03.902-.045 1.224-.045h.314c.34 0 .512.1.512.3 0 .118-.053.193-.157.223-.104.03-.431.056-.982.075-.55.02-.877.115-.981.284-.105.17-.157.693-.157 1.57v17.65c.512.02 1.224.03 2.135.03 2.22 0 3.785-.12 4.695-.359.911-.239 1.527-.688 1.85-1.346.323-.658.513-1.545.57-2.663.017-.258.126-.388.327-.388.237 0 .346.15.327.449v2.602zM112 25.003c0 .079-.019.565-.056 1.457a60.859 60.859 0 0 0-.056 2.558V30c-1.828-.12-5.448-.179-10.858-.179H97.53c-.354 0-.531-.08-.531-.239 0-.106.056-.169.168-.186.055 0 .41-.027 1.063-.08.485-.04.779-.15.881-.328.103-.18.155-.647.155-1.403V10.818c0-.577-.08-.92-.238-1.03-.159-.109-.667-.164-1.526-.164-.298 0-.447-.084-.447-.252 0-.169.205-.253.616-.253h11.865c.56 0 1.073-.04 1.54-.119.037.852.121 2.033.252 3.54l.111 1.278c.019.1.028.229.028.387 0 .198-.084.297-.251.297-.206 0-.355-.249-.448-.748-.355-1.796-.933-2.933-1.735-3.412-.598-.36-2.165-.54-4.702-.54h-2.295v8.746h.672c2.09 0 3.363-.168 3.82-.506.457-.337.77-1.318.938-2.944.037-.417.14-.625.307-.625.206 0 .308.178.308.535 0 .357-.019.883-.056 1.577-.037.694-.056 1.22-.056 1.576 0 2.122.03 3.58.09 4.373.015.198.022.367.022.505 0 .258-.102.387-.306.387-.13 0-.219-.084-.265-.252-.046-.169-.125-.72-.237-1.651-.148-1.17-.603-1.894-1.365-2.172-.334-.12-1.207-.178-2.618-.178h-1.254v9.964c4.105 0 6.511-.088 7.22-.264 1.232-.294 1.931-1.547 2.1-3.76.037-.49.158-.735.363-.735.187 0 .28.208.28.625M123.848 13.871c0-2.831-1.229-4.248-3.685-4.248-.654 0-1.1.09-1.338.268-.238.178-.357.495-.357.95v7.545c1.903.02 3.274-.327 4.117-1.04.842-.713 1.263-1.871 1.263-3.475M130 28.752c0 .832-.694 1.248-2.08 1.248-1.546 0-2.755-.644-3.626-1.931-.377-.554-.62-1.089-.728-1.604-.11-.514-.273-1.821-.49-3.92-.12-1.268-.526-2.164-1.22-2.689-.693-.524-1.823-.806-3.388-.846v9.356c0 .397.317.644.951.742.179.02.634.04 1.368.06.257 0 .386.08.386.238 0 .178-.168.267-.505.267h-6.984c-.437 0-.655-.09-.655-.267 0-.139.287-.218.862-.238.932-.02 1.437-.138 1.516-.356.08-.1.12-.485.12-1.159V11.257c0-.792-.085-1.267-.253-1.426-.17-.158-.68-.247-1.531-.267-.496 0-.743-.089-.743-.267 0-.198.158-.297.475-.297.06 0 .15.01.268.03l3.953.089c.396 0 .951-.013 1.664-.04A29.458 29.458 0 0 1 121.025 9c1.842 0 3.303.41 4.383 1.232 1.08.823 1.62 1.936 1.62 3.342 0 1.386-.555 2.53-1.664 3.43-1.11.902-2.616 1.431-4.518 1.59-.178.02-.277.05-.297.09 0 .079.099.118.297.118 2.08.358 3.512 1.088 4.295 2.19.782 1.102 1.302 3.092 1.56 5.971.158 1.629.714 2.443 1.664 2.443.297 0 .446-.06.446-.179 0-.019-.01-.04-.03-.06-.099-.217-.148-.395-.148-.533 0-.416.218-.624.654-.624.475 0 .713.247.713.742"/>
        <g>
            <mask id="b" fill="#fff">
                <use xlink:href="#a"/>
            </mask>
            <path fill="#4C4B4B" d="M22.828 20.077c0-.026-.028.344-.081 1.111a65.763 65.763 0 0 0-.162 4.607c0 .192.027.541.08 1.049.054.507.082 1.117.082 1.83v.37c0 .356-.108.535-.324.535-.216 0-.404-.206-.565-.617-.378-.96-.754-1.549-1.132-1.769-1.939 1.728-4.269 2.591-6.99 2.591-3.958 0-7.238-1.405-9.837-4.215-2.6-2.81-3.9-6.355-3.9-10.633 0-4.305 1.193-7.821 3.577-10.55C5.959 1.658 9.036.294 12.808.294c1.373 0 2.47.117 3.293.349.82.233 1.838.706 3.05 1.42.592.356 1.036.534 1.333.534.242 0 .471-.22.687-.659.35-.766.633-1.15.848-1.15.216 0 .324.109.324.328 0 .11-.027.288-.081.535-.297 1.316-.445 3.784-.445 7.403 0 .522-.04.823-.12.905a.434.434 0 0 1-.324.124c-.27 0-.444-.26-.525-.782-.35-2.193-.849-3.825-1.495-4.895-1.32-2.193-3.394-3.29-6.222-3.29-2.182 0-3.906.74-5.172 2.221-2.29 2.66-3.434 6.554-3.434 11.681 0 4.58.943 8.13 2.828 10.653 1.643 2.194 3.825 3.29 6.546 3.29 1.4 0 2.68-.355 3.838-1.069 1.158-.712 2.053-1.692 2.687-2.94.632-1.248 1.124-2.749 1.474-4.504.135-.658.31-.988.525-.988.27 0 .405.206.405.617" mask="url(#b)"/>
        </g>
    </g>
</svg>
