<svg xmlns="http://www.w3.org/2000/svg" width="21" height="21" viewBox="0 0 21 21">
    <g fill="none" fill-rule="evenodd">
        <g fill="#7A7A7A">
            <g>
                <path d="M20.325 19.687h-.453l-.29-1.157c-.022-.091-.104-.155-.199-.155H1.617c-.094 0-.177.064-.2.155l-.289 1.157H.675c-.354 0-.658.272-.674.625-.018.377.282.688.655.688h19.688c.373 0 .673-.311.655-.688-.016-.353-.32-.625-.674-.625zM8.878 5.578h.966V6.59c-4.037.335-7.219 3.726-7.219 7.847v.329c-.373 0-.673.31-.656.687.017.353.321.625.674.625h1.95v.78c0 .113.093.204.206.204H16.2c.113 0 .205-.091.205-.205v-.779h1.95c.354 0 .658-.272.675-.625.017-.377-.283-.687-.656-.687v-.329c0-4.12-3.182-7.512-7.219-7.847V5.578h.966c.353 0 .657-.271.674-.624.018-.377-.282-.688-.655-.688H8.859c-.373 0-.673.31-.655.688.017.353.32.624.674.624zM.656 11.156H1.97c.362 0 .656-.294.656-.656 0-.362-.294-.656-.656-.656H.656c-.362 0-.656.294-.656.656 0 .362.294.656.656.656zM19.031 11.156h1.313c.362 0 .656-.294.656-.656 0-.362-.294-.656-.656-.656H19.03c-.362 0-.656.294-.656.656 0 .362.294.656.656.656zM4.003 4.932c.257.256.672.256.929 0 .256-.257.256-.672 0-.929l-.929-.928c-.256-.256-.671-.256-.928 0-.256.257-.256.672 0 .928l.928.929zM16.532 5.124c.168 0 .336-.064.464-.192l.929-.929c.256-.256.256-.671 0-.928-.257-.256-.672-.256-.928 0l-.929.928c-.414.415-.115 1.12.464 1.12zM10.5 2.625c.362 0 .656-.294.656-.656V.656c0-.362-.294-.656-.656-.656-.362 0-.656.294-.656.656V1.97c0 .362.294.656.656.656z" transform="translate(-360 -742) translate(360 742)"/>
            </g>
        </g>
    </g>
</svg>
