<svg xmlns="http://www.w3.org/2000/svg" width="94" height="94" viewBox="0 0 94 94">
    <g fill="#8DC53E" fill-rule="evenodd">
        <path d="M27.34 56.995a2.887 2.887 0 0 1 3.833 1.186l5.3 9.676a1.887 1.887 0 0 0 2.11.914A1.855 1.855 0 0 0 40 66.977V52.85c0-1.022-.84-1.85-1.877-1.85-1.036 0-1.876.829-1.876 1.85v6.808l-1.772-3.235c-1.72-3.138-5.596-4.34-8.826-2.732-2.764 1.375-4.187 4.408-3.461 7.375l3.435 14.04a25.181 25.181 0 0 0 4.255 9.055l6.73 9.08c.368.496.938.759 1.517.759.384 0 .772-.116 1.105-.357a1.834 1.834 0 0 0 .408-2.585l-6.73-9.081a21.52 21.52 0 0 1-3.636-7.739l-3.435-14.04a2.817 2.817 0 0 1 1.503-3.203zM68.748 49.5a6.22 6.22 0 0 0-2.994.763 6.261 6.261 0 0 0-5.838-4.014 6.219 6.219 0 0 0-3.149.853 6.26 6.26 0 0 0-5.683-3.646c-.92 0-1.792.2-2.58.558v-8.77c0-3.443-2.804-6.244-6.252-6.244C38.805 29 36 31.801 36 35.245v3.179c0 1.013.822 1.834 1.837 1.834a1.835 1.835 0 0 0 1.836-1.834v-3.18a2.58 2.58 0 0 1 2.58-2.575 2.58 2.58 0 0 1 2.579 2.576v25.882a1.835 1.835 0 1 0 3.673 0V49.7a2.58 2.58 0 0 1 2.58-2.576 2.58 2.58 0 0 1 2.578 2.576v11.427c0 1.012.823 1.834 1.837 1.834a1.835 1.835 0 0 0 1.837-1.834v-8.633a2.58 2.58 0 0 1 2.579-2.577 2.58 2.58 0 0 1 2.58 2.577v8.633a1.835 1.835 0 1 0 3.673 0v-5.384a2.58 2.58 0 0 1 2.579-2.576 2.58 2.58 0 0 1 2.579 2.576V71.22c0 4.124-.627 8.21-1.862 12.146l-2.59 8.25A1.834 1.834 0 0 0 68.626 94c.781 0 1.506-.502 1.752-1.286l2.59-8.25A44.16 44.16 0 0 0 75 71.22V55.743c0-3.442-2.805-6.244-6.252-6.244z"/>
        <path fill-rule="nonzero" d="M93.847 9.701a3.06 3.06 0 0 0-2.485-2.095l-5.6-.813-2.505-5.077A3.058 3.058 0 0 0 80.498 0c-1.18 0-2.238.658-2.76 1.718l-2.503 5.078-5.599.815a3.059 3.059 0 0 0-2.483 2.097 3.062 3.062 0 0 0 .78 3.157l4.052 3.951-.955 5.581a3.062 3.062 0 0 0 1.225 3.012 3.064 3.064 0 0 0 3.241.234l5.007-2.636 5.009 2.633c1.045.55 2.287.46 3.241-.235a3.061 3.061 0 0 0 1.223-3.013l-.958-5.58 4.05-3.953a3.063 3.063 0 0 0 .779-3.158zm-7.599 4.704a3.08 3.08 0 0 0-.884 2.726l.81 4.724-4.24-2.229a3.075 3.075 0 0 0-2.864 0l-4.239 2.232.809-4.725c.17-.999-.16-2.018-.886-2.725l-3.431-3.345 4.74-.69a3.077 3.077 0 0 0 2.316-1.686l2.12-4.299 2.12 4.298a3.078 3.078 0 0 0 2.318 1.684l4.74.688-3.429 3.347zM59.847 9.701a3.059 3.059 0 0 0-2.485-2.095l-5.6-.813-2.505-5.077A3.058 3.058 0 0 0 46.498 0c-1.18 0-2.238.658-2.76 1.718l-2.503 5.078-5.599.815a3.059 3.059 0 0 0-2.483 2.098 3.062 3.062 0 0 0 .78 3.156l4.052 3.951-.955 5.581a3.062 3.062 0 0 0 1.225 3.012 3.064 3.064 0 0 0 3.24.234l5.008-2.636 5.009 2.633c1.045.55 2.287.46 3.241-.235a3.061 3.061 0 0 0 1.223-3.013l-.958-5.58 4.05-3.953a3.063 3.063 0 0 0 .779-3.158zm-7.599 4.704a3.08 3.08 0 0 0-.884 2.726l.81 4.724-4.24-2.229a3.075 3.075 0 0 0-2.864 0l-4.239 2.232.809-4.724c.17-1-.16-2.019-.886-2.726l-3.431-3.345 4.74-.69a3.078 3.078 0 0 0 2.317-1.686l2.118-4.299 2.121 4.298a3.077 3.077 0 0 0 2.318 1.684l4.74.688-3.429 3.347zM26.847 9.701a3.06 3.06 0 0 0-2.485-2.095l-5.6-.813-2.505-5.077A3.058 3.058 0 0 0 13.498 0c-1.18 0-2.238.658-2.76 1.718L8.235 6.796l-5.599.815A3.06 3.06 0 0 0 .153 9.708a3.062 3.062 0 0 0 .78 3.157l4.052 3.951-.955 5.581a3.062 3.062 0 0 0 1.225 3.012 3.064 3.064 0 0 0 3.241.234l5.008-2.636 5.008 2.633a3.057 3.057 0 0 0 3.241-.235 3.063 3.063 0 0 0 1.224-3.013l-.958-5.58 4.05-3.954a3.063 3.063 0 0 0 .778-3.157zm-7.599 4.704a3.08 3.08 0 0 0-.884 2.726l.81 4.724-4.24-2.229a3.075 3.075 0 0 0-2.864 0l-4.239 2.232.808-4.724a3.08 3.08 0 0 0-.885-2.726l-3.431-3.345 4.74-.69a3.077 3.077 0 0 0 2.317-1.686l2.118-4.299 2.121 4.298a3.077 3.077 0 0 0 2.318 1.684l4.74.688-3.429 3.347z"/>
        <path d="M39.414 44.586A2.014 2.014 0 0 0 38 44c-.526 0-1.042.214-1.414.586A2.015 2.015 0 0 0 36 46c0 .526.214 1.042.586 1.414.372.372.888.586 1.414.586.526 0 1.042-.214 1.414-.586.372-.372.586-.888.586-1.414 0-.526-.214-1.042-.586-1.414z"/>
    </g>
</svg>
