<svg xmlns="http://www.w3.org/2000/svg" xmlns:xlink="http://www.w3.org/1999/xlink" width="110" height="25" viewBox="0 0 110 25">
    <defs>
        <path id="a" d="M.067.147h13.527V6H.067z"/>
    </defs>
    <g fill="none" fill-rule="evenodd">
        <g transform="translate(22 19)">
            <mask id="b" fill="#fff">
                <use xlink:href="#a"/>
            </mask>
            <path fill="#FFF" d="M11.305 5.936a5.123 5.123 0 0 0 1.22.049c.073-.007.15-.013.225-.022a.691.691 0 0 0 .598-.498c.08-.315.036-.627-.046-.945a6.914 6.914 0 0 0-.05-.18c-.055-.193-.118-.39-.17-.589a6.66 6.66 0 0 1-.044-.184 2.514 2.514 0 0 1-.062-.522l.002-.037c.004-.075.016-.159.035-.25.054-.24.16-.529.267-.823l.039-.142.044-.091c.15-.429.274-.851.216-1.148V.552a.46.46 0 0 0-.326-.372.784.784 0 0 0-.138-.033l-.092.001a19.352 19.352 0 0 0-1.055.037 9.37 9.37 0 0 0-1.4.196c-.512.12-.992.3-1.398.57a7.607 7.607 0 0 0-.242.168c-.678.484-.925.81-1.381 1.067-.005.026-.001.004 0-.007a.203.203 0 0 0-.031-.126.235.235 0 0 0-.161-.113 1.92 1.92 0 0 1-.456.044h-.068a2.515 2.515 0 0 1-.524-.044c-.11.014-.205.13-.192.24.001.01.005.032 0 .006a2.696 2.696 0 0 1-.361-.244 5.64 5.64 0 0 1-.135-.11c-.113-.094-.229-.196-.364-.31a8.057 8.057 0 0 0-.665-.504C4.558.997 4.527.974 4.492.95a3.425 3.425 0 0 0-.594-.313 4.895 4.895 0 0 0-.52-.182C3.314.435 3.245.418 3.177.4a6.832 6.832 0 0 0-.824-.153 12.15 12.15 0 0 0-.8-.073L1.297.163C1.055.153.813.148.576.147h-.03C.26.188.123.338.081.552c-.031.16-.009.359.042.572.014.06.03.122.048.182.053.186.121.38.191.573l.062.17c.059.163.115.324.161.474.019.062.036.121.05.18.032.126.05.242.05.342a2.588 2.588 0 0 1-.054.488c-.066.323-.178.634-.259.94a3.566 3.566 0 0 0-.08.378 1.568 1.568 0 0 0 .046.698c.038.118.095.236.174.353l.113.02a5.256 5.256 0 0 0 1.355.06 5.312 5.312 0 0 0 1.377-.302c.398-.14.773-.321 1.126-.526.418-.244.714-.502.99-.737a.886.886 0 0 1 .285-.095c.096-.02.208-.037.33-.05a6.605 6.605 0 0 1 .933-.036c.086.003.172.005.256.01.242.015.47.043.645.08.08.017.146.037.198.058.027.01.05.02.068.033.1.084.203.172.312.261h.003l.138.107-.003.002c.144.111.303.223.484.332.02.011.038.024.057.035.033.02.067.038.1.056a6.565 6.565 0 0 0 1.328.568c.226.067.458.12.698.158" mask="url(#b)"/>
        </g>
        <path fill="#FFF" d="M23.013 17.754h.03a23.238 23.238 0 0 1 1.028.03 12.032 12.032 0 0 1 1.104.11c.191.03.374.066.55.106-.38-1.016-.571-2.25-.571-3.704 0-1.765.258-3.222.772-4.37.738-1.642 1.924-2.463 3.557-2.463 1.186 0 2.114.441 2.786 1.323 1.05 1.376 1.576 3.253 1.576 5.633 0 1.41-.14 2.592-.42 3.55l.238-.047c.339-.06.704-.102 1.114-.13l.306-.017c.243-.01.506-.017.807-.02.046 0 .102-.004.155.003.03.005.059.01.088.017.577-1.026.867-2.174.867-3.448 0-2.072-.71-3.812-2.131-5.217C33.448 7.704 31.687 7 29.584 7c-2.215 0-4.033.673-5.453 2.017C22.71 10.36 22 12.09 22 14.204c0 1.318.315 2.504.94 3.557.006 0 .011-.002.017-.003a.342.342 0 0 1 .056-.004M53 7.242c0 .161-.205.233-.616.217H51.4c-.263 0-.418.045-.468.133-.049.088-.074.358-.074.808v13.889c0 .851-.008 1.35-.024 1.494-.017.145-.065.217-.147.217-.099 0-.213-.089-.344-.266l-3.145-4.52a591.95 591.95 0 0 1-6.653-9.829v13.48c.016.21.14.343.372.4.233.056.788.092 1.667.108.215 0 .323.064.323.193 0 .16-.213.241-.64.241-.147 0-.615-.024-1.402-.072a11.917 11.917 0 0 0-.764-.024c.017 0-.127.016-.43.048-.304.032-.768.048-1.391.048h-.246c-.378 0-.567-.072-.567-.218 0-.144.164-.217.493-.217.968-.016 1.53-.076 1.686-.181.156-.104.234-.448.234-1.028V10.241c0-1.339-.28-2.177-.837-2.516-.263-.161-.73-.241-1.403-.241-.427 0-.64-.085-.64-.255 0-.153.123-.229.369-.229.328 0 .747.017 1.255.049.51.032.78.048.813.048.049 0 .279-.008.69-.024.54 0 1.066-.024 1.575-.073l8.492 12.436V8.69c0-.5-.008-.801-.025-.906-.017-.104-.082-.185-.197-.242-.115-.055-.509-.084-1.181-.084-.591 0-.886-.073-.886-.217 0-.16.196-.242.59-.242h3.964c.36 0 .541.081.541.242M68 11.372c0 .212-.101.318-.303.318-.202 0-.346-.211-.43-.635-.034-.294-.068-.586-.1-.88-.119-.586-.313-1.082-.582-1.49-.354-.536-.936-.878-1.744-1.025-.522-.098-.944-.139-1.263-.122-.792.022-1.273.038-1.44.049v14.75c0 .588.16.954.479 1.1.169.083.64.132 1.416.148.201.015.303.084.303.207 0 .139-.136.208-.405.208-.135 0-.252-.008-.353-.024a76.36 76.36 0 0 0-2.149-.05c-.555 0-1.078.013-1.566.037-.49.024-1.112.037-1.87.037-.388 0-.581-.065-.581-.196 0-.146.361-.227 1.086-.244.523 0 .86-.106 1.011-.318.084-.13.126-.465.126-1.003V7.587c-1.668.016-2.704.097-3.108.244-1.061.374-1.685 1.376-1.87 3.004-.05.489-.169.733-.354.733-.202 0-.303-.171-.303-.513 0-.179.008-.358.025-.537l.05-.562c.051-.749.127-1.734.228-2.956h1.137l5.155.073c.607.017 1.55.017 2.831 0L67.621 7c.034.913.143 2.264.328 4.055 0 .05.009.11.026.183a.932.932 0 0 1 .025.134M80.998 21.918c0 .42-.025 1.113-.074 2.082h-.27c-.099 0-.337-.016-.714-.048a15.067 15.067 0 0 0-1.28-.048l-10.241-.073c-.28 0-.419-.073-.419-.218 0-.114.222-.186.666-.219.625-.031.999-.1 1.122-.206.124-.104.185-.406.185-.907V8.671c0-.597-.061-.945-.185-1.04-.123-.098-.563-.146-1.32-.146-.312 0-.468-.089-.468-.267 0-.145.099-.218.296-.218h.222c.543.049 1.62.073 3.231.073.148 0 .435-.012.863-.036.428-.024.78-.037 1.06-.037h.272c.296 0 .444.081.444.243 0 .096-.046.157-.135.181-.092.025-.375.045-.851.06-.478.017-.761.094-.851.231-.09.137-.136.56-.136 1.271v14.288c.444.016 1.06.024 1.85.024 1.924 0 3.28-.097 4.07-.291.789-.193 1.323-.556 1.603-1.09.279-.532.443-1.25.493-2.154.015-.21.11-.315.284-.315.205 0 .3.12.283.363V21.918zM95 19.955c0 .064-.016.457-.048 1.18a46.064 46.064 0 0 0-.05 2.071V24c-1.584-.096-4.72-.144-9.41-.144h-3.031c-.307 0-.461-.065-.461-.194 0-.086.048-.137.145-.151.049 0 .356-.021.922-.065.42-.031.675-.12.764-.265.089-.145.134-.524.134-1.136V8.471c0-.466-.07-.744-.207-.833-.137-.088-.578-.133-1.321-.133-.259 0-.389-.068-.389-.204 0-.137.178-.205.534-.205H92.866c.485 0 .93-.032 1.334-.096.032.69.105 1.645.218 2.865l.097 1.035c.016.081.024.185.024.313 0 .162-.072.242-.218.242-.178 0-.307-.202-.388-.607-.307-1.453-.809-2.374-1.504-2.762-.517-.29-1.876-.436-4.074-.436h-1.99v7.08h.583c1.81 0 2.914-.137 3.31-.41.397-.272.667-1.067.813-2.384.032-.337.121-.505.267-.505.178 0 .267.144.267.433 0 .289-.017.715-.05 1.276-.031.562-.048.988-.048 1.276 0 1.718.026 2.898.078 3.54.013.16.02.297.02.41 0 .208-.09.312-.266.312-.113 0-.19-.067-.23-.204-.04-.137-.108-.582-.204-1.337-.13-.947-.524-1.532-1.184-1.758-.29-.096-1.046-.144-2.269-.144h-1.086v8.067c3.557 0 5.643-.071 6.258-.214 1.066-.238 1.673-1.253 1.818-3.044.033-.397.137-.595.315-.595.162 0 .243.168.243.506M104.934 10.944c0-2.292-1.012-3.438-3.035-3.438-.539 0-.906.071-1.102.215-.195.145-.293.402-.293.77V14.6c1.566.016 2.696-.265 3.39-.842.693-.577 1.04-1.515 1.04-2.813M110 22.99c0 .673-.571 1.01-1.713 1.01-1.273 0-2.268-.52-2.986-1.563-.31-.449-.51-.881-.6-1.299-.09-.416-.225-1.474-.404-3.173-.098-1.026-.432-1.751-1.003-2.176-.572-.425-1.502-.653-2.79-.686v7.575c0 .32.26.521.782.6.148.017.523.033 1.127.05.212 0 .318.063.318.191 0 .144-.14.216-.416.216h-5.752c-.36 0-.538-.072-.538-.216 0-.112.236-.176.71-.192.766-.016 1.182-.112 1.248-.289.064-.08.098-.392.098-.938V8.828c0-.64-.07-1.026-.209-1.155-.139-.128-.558-.2-1.26-.216-.408 0-.612-.072-.612-.216 0-.16.13-.241.391-.241.05 0 .123.009.22.024l3.256.073c.327 0 .783-.01 1.37-.032.653-.043 1.11-.065 1.372-.065 1.517 0 2.72.333 3.61.998.889.666 1.334 1.567 1.334 2.705 0 1.122-.458 2.048-1.371 2.778-.914.729-2.154 1.158-3.72 1.286-.147.016-.23.04-.245.073 0 .064.081.096.244.096 1.714.29 2.893.88 3.538 1.771.644.893 1.072 2.505 1.285 4.835.13 1.319.587 1.977 1.37 1.977.245 0 .367-.048.367-.144 0-.016-.008-.032-.024-.048-.082-.177-.123-.321-.123-.433 0-.337.18-.505.54-.505.39 0 .586.2.586.601M20 16.1c0-.021-.024.28-.07.904-.095 1.25-.143 2.5-.143 3.749 0 .157.024.44.072.853.046.413.07.91.07 1.49v.301c0 .29-.094.435-.283.435-.19 0-.354-.167-.496-.502-.33-.78-.66-1.26-.99-1.44-1.7 1.406-3.741 2.11-6.125 2.11-3.469 0-6.342-1.144-8.619-3.431C1.138 18.282 0 15.398 0 11.916c0-3.503 1.044-6.365 3.133-8.585C5.22 1.11 7.917 0 11.22 0c1.204 0 2.165.096 2.885.284.72.19 1.61.575 2.673 1.156.518.29.908.435 1.168.435.212 0 .413-.179.602-.536.306-.624.554-.937.743-.937.189 0 .284.089.284.267 0 .09-.024.234-.072.435-.26 1.072-.389 3.08-.389 6.026 0 .424-.035.669-.106.736a.396.396 0 0 1-.283.1c-.237 0-.39-.211-.46-.636-.307-1.785-.744-3.113-1.31-3.983C15.799 1.562 13.983.67 11.504.67c-1.911 0-3.422.603-4.53 1.808-2.006 2.165-3.01 5.334-3.01 9.506 0 3.727.826 6.617 2.479 8.67 1.438 1.786 3.35 2.677 5.734 2.677 1.227 0 2.348-.29 3.363-.87a6.05 6.05 0 0 0 2.354-2.393c.554-1.016.985-2.238 1.292-3.665.118-.536.27-.804.46-.804.235 0 .354.167.354.502"/>
    </g>
</svg>
